<mxfile host="app.diagrams.net" modified="2023-03-31T09:39:18.237Z" agent="5.0 (Windows NT 10.0; Win64; x64) AppleWebKit/537.36 (KHTML, like Gecko) Chrome/109.0.0.0 Safari/537.36" etag="AmwViTacvajD9T-tUT0Y" version="21.0.10" type="github">
  <diagram name="第 1 页" id="2n7j4LguaBsji-jBZAKb">
    <mxGraphModel dx="530" dy="294" grid="1" gridSize="10" guides="1" tooltips="1" connect="1" arrows="1" fold="1" page="1" pageScale="1" pageWidth="827" pageHeight="1169" math="0" shadow="0">
      <root>
        <mxCell id="0" />
        <mxCell id="1" parent="0" />
        <mxCell id="fVDMYMvhqNhXlZ7wybIm-2" value="" style="rounded=1;whiteSpace=wrap;html=1;strokeColor=#b4a996;strokeWidth=2;" vertex="1" parent="1">
          <mxGeometry x="380" y="230" width="120" height="60" as="geometry" />
        </mxCell>
        <mxCell id="fVDMYMvhqNhXlZ7wybIm-3" value="&lt;font style=&quot;font-size: 24px;&quot;&gt;vswitchd&lt;/font&gt;" style="text;html=1;strokeColor=none;fillColor=none;align=center;verticalAlign=middle;whiteSpace=wrap;rounded=0;" vertex="1" parent="1">
          <mxGeometry x="390" y="245" width="100" height="30" as="geometry" />
        </mxCell>
        <mxCell id="fVDMYMvhqNhXlZ7wybIm-4" value="" style="rounded=1;whiteSpace=wrap;html=1;strokeColor=#b4a996;strokeWidth=2;" vertex="1" parent="1">
          <mxGeometry x="530" y="230" width="120" height="60" as="geometry" />
        </mxCell>
        <mxCell id="fVDMYMvhqNhXlZ7wybIm-5" value="&lt;font style=&quot;font-size: 24px;&quot;&gt;ovsdb&lt;/font&gt;" style="text;html=1;strokeColor=none;fillColor=none;align=center;verticalAlign=middle;whiteSpace=wrap;rounded=0;" vertex="1" parent="1">
          <mxGeometry x="540" y="245" width="100" height="30" as="geometry" />
        </mxCell>
      </root>
    </mxGraphModel>
  </diagram>
</mxfile>
